Run_30002
nRows=4
nColumns=164

# SIMM Motion File Header:
name Run_30002
datacolumns 164
datarows 4
otherdata 1
range 1.47500000 1.50000000
endheader
time	pelvis_tilt	pelvis_list	pelvis_rotation	pelvis_tx	pelvis_ty	pelvis_tz	hip_flexion_r	hip_adduction_r	hip_rotation_r	knee_angle_r	ankle_angle_r	hip_flexion_l	hip_adduction_l	hip_rotation_l	knee_angle_l	ankle_angle_l	lumbar_extension	lumbar_bending	lumbar_rotation	arm_flex_r	arm_add_r	arm_rot_r	elbow_flex_r	pro_sup_r	arm_flex_l	arm_add_l	arm_rot_l	elbow_flex_l	pro_sup_l	subtalar_angle_r	mtp_angle_r	subtalar_angle_l	mtp_angle_l	wrist_flex_r	wrist_dev_r	wrist_flex_l	wrist_dev_l	LASI_tx	LASI_ty	LASI_tz	RASI_tx	RASI_ty	RASI_tz	LPSI_tx	LPSI_ty	LPSI_tz	RPSI_tx	RPSI_ty	RPSI_tz	RTH1_tx	RTH1_ty	RTH1_tz	RTH2_tx	RTH2_ty	RTH2_tz	RTH3_tx	RTH3_ty	RTH3_tz	LTH1_tx	LTH1_ty	LTH1_tz	LTH2_tx	LTH2_ty	LTH2_tz	LTH3_tx	LTH3_ty	LTH3_tz	RTB1_tx	RTB1_ty	RTB1_tz	RTB2_tx	RTB2_ty	RTB2_tz	RTB3_tx	RTB3_ty	RTB3_tz	LTB1_tx	LTB1_ty	LTB1_tz	LTB2_tx	LTB2_ty	LTB2_tz	LTB3_tx	LTB3_ty	LTB3_tz	RCAL_tx	RCAL_ty	RCAL_tz	RTOE_tx	RTOE_ty	RTOE_tz	RMT5_tx	RMT5_ty	RMT5_tz	LCAL_tx	LCAL_ty	LCAL_tz	LTOE_tx	LTOE_ty	LTOE_tz	LMT5_tx	LMT5_ty	LMT5_tz	LACR_tx	LACR_ty	LACR_tz	RACR_tx	RACR_ty	RACR_tz	CLAV_tx	CLAV_ty	CLAV_tz	C7_tx	C7_ty	C7_tz	RUA1_tx	RUA1_ty	RUA1_tz	RUA2_tx	RUA2_ty	RUA2_tz	RUA3_tx	RUA3_ty	RUA3_tz	RLEL_tx	RLEL_ty	RLEL_tz	RMEL_tx	RMEL_ty	RMEL_tz	LUA1_tx	LUA1_ty	LUA1_tz	LUA2_tx	LUA2_ty	LUA2_tz	LUA3_tx	LUA3_ty	LUA3_tz	LLEL_tx	LLEL_ty	LLEL_tz	LMEL_tx	LMEL_ty	LMEL_tz	RFAsuperior_tx	RFAsuperior_ty	RFAsuperior_tz	RFAradius_tx	RFAradius_ty	RFAradius_tz	RFAulna_tx	RFAulna_ty	RFAulna_tz	LFAsuperior_tx	LFAsuperior_ty	LFAsuperior_tz	LFAradius_tx	LFAradius_ty	LFAradius_tz	LFAulna_tx	LFAulna_ty	LFAulna_tz
      1.47500000	     -5.05396467	      1.96263799	     -1.75212704	      0.90782222	      1.09079618	     -0.31766430	    -14.85915991	      1.46139651	     -0.00582738	    -27.81771016	     -9.90831827	     30.86587928	      4.57645645	      2.70727469	    -17.81809364	      9.10879982	    -10.44990393	     -3.38420997	     13.05411977	     -5.58846409	    -28.45470684	      2.14446034	    137.33190455	    111.13699658	    -36.26523081	    -21.92668718	      3.18950661	    118.64663721	     97.46417275	      0.00000000	      0.00000000	      0.00000000	      0.00000000	      0.00000000	      0.00000000	      0.00000000	      0.00000000	      0.90003368	      1.10853196	     -0.44532695	      0.90068531	      1.10415276	     -0.18644001	      0.72457062	      1.14985944	     -0.36376622	      0.72509987	      1.14889317	     -0.28005604	      0.78452935	      0.94008730	     -0.14104979	      0.78743463	      0.82122756	     -0.16017176	      0.67412679	      0.74885808	     -0.19284306	      0.89070857	      0.90257755	     -0.49452426	      0.99302373	      0.80866178	     -0.48009670	      0.96682665	      0.68042103	     -0.45712237	      0.56986828	      0.45847801	     -0.27764084	      0.50353935	      0.42616975	     -0.21392140	      0.44787857	      0.34113766	     -0.28246655	      1.08387384	      0.47085917	     -0.39248530	      1.06973145	      0.37985622	     -0.44471558	      1.10553635	      0.27237427	     -0.37573483	      0.27888682	      0.32265368	     -0.30373489	      0.37972818	      0.11228946	     -0.31932162	      0.30996765	      0.14803164	     -0.23703223	      1.02849127	      0.10892398	     -0.36276957	      1.25337261	      0.16663454	     -0.32834266	      1.20807491	      0.10633392	     -0.41323936	      0.88939485	      1.57737076	     -0.49500884	      0.94097846	      1.58804728	     -0.16882742	      0.95964215	      1.52372953	     -0.30439955	      0.84210216	      1.61209083	     -0.31439803	      0.94058279	      1.49628795	     -0.08404070	      0.95183822	      1.40661086	     -0.08207135	      0.89102510	      1.39964945	     -0.03029863	      0.90061126	      1.26627284	      0.02470344	      0.84305883	      1.24561182	     -0.03715360	      0.82682486	      1.52326622	     -0.56540486	      0.80661551	      1.45507090	     -0.57021431	      0.71754561	      1.48458718	     -0.53541981	      0.62514999	      1.34921150	     -0.60157355	      0.60034993	      1.35059590	     -0.52058911	      0.98540158	      1.29929908	     -0.03645298	      1.04972831	      1.36220972	     -0.18862916	      1.09582625	      1.31340012	     -0.15564924	      0.71267666	      1.30953958	     -0.59322595	      0.86534016	      1.26105975	     -0.50574952	      0.84048001	      1.19876695	     -0.53250072
      1.48333300	     -4.97178851	      1.98009464	     -1.32256059	      0.90876384	      1.08920033	     -0.31901756	    -14.30128859	      1.54382760	     -0.31244869	    -31.30668558	     -8.91619808	     30.37411464	      4.81809398	      2.04930827	    -16.48506175	      9.36602860	    -10.42758019	     -3.36468142	     12.57803969	     -6.37808237	    -28.44324101	      2.65838652	    137.38536460	    111.51362194	    -36.05385861	    -21.99323768	      3.09457048	    118.98387959	     97.48017739	      0.00000000	      0.00000000	      0.00000000	      0.00000000	      0.00000000	      0.00000000	      0.00000000	      0.00000000	      0.89999980	      1.10665071	     -0.44587799	      0.90235448	      1.10274248	     -0.18727073	      0.72475044	      1.14772387	     -0.36334215	      0.72622699	      1.14734552	     -0.27965655	      0.78785889	      0.93760084	     -0.14226333	      0.79154954	      0.81859488	     -0.16171749	      0.67948974	      0.74561691	     -0.19342910	      0.88902965	      0.89961498	     -0.49766460	      0.99008349	      0.80376877	     -0.48220854	      0.96376422	      0.67698375	     -0.45731781	      0.57062731	      0.45886476	     -0.27830612	      0.50245183	      0.43031938	     -0.21438691	      0.44556195	      0.34633123	     -0.28310077	      1.08288486	      0.46877707	     -0.39342869	      1.06871749	      0.37711124	     -0.44412538	      1.10803340	      0.27108637	     -0.37529356	      0.27147138	      0.33747313	     -0.30442911	      0.36533358	      0.12375611	     -0.31797187	      0.29665300	      0.16257471	     -0.23613960	      1.03369401	      0.10611192	     -0.35880012	      1.25753626	      0.16925156	     -0.32901050	      1.21264435	      0.10544278	     -0.41135031	      0.88958215	      1.57577591	     -0.49584572	      0.94132187	      1.58693330	     -0.16965814	      0.95952937	      1.52248932	     -0.30508420	      0.84200277	      1.61067636	     -0.31509961	      0.94073061	      1.49508117	     -0.08480363	      0.95106965	      1.40583852	     -0.08185597	      0.88937359	      1.39954120	     -0.03077637	      0.89738419	      1.26602511	      0.02462373	      0.83909527	      1.24620711	     -0.03697324	      0.82691792	      1.52156197	     -0.56547688	      0.80712552	      1.45346102	     -0.57104598	      0.71795782	      1.48205276	     -0.53598769	      0.62663557	      1.34606769	     -0.60306645	      0.60170154	      1.34707969	     -0.52214472	      0.98248758	      1.29725089	     -0.03720494	      1.04632148	      1.35917991	     -0.19012467	      1.09213786	      1.31009337	     -0.15718414	      0.71465347	      1.30756025	     -0.59438667	      0.86767273	      1.26068875	     -0.50678277	      0.84348222	      1.19814058	     -0.53356604
      1.49166700	     -4.87975393	      2.07124400	     -0.87455856	      0.90936289	      1.08695789	     -0.32034149	    -13.49231996	      1.57724735	     -0.55802852	    -35.23750917	     -7.92331760	     30.06868508	      5.15114063	      0.93679313	    -16.02017981	      9.61352500	    -10.45511298	     -3.43884135	     11.99339077	     -7.16368921	    -28.34730612	      3.08580992	    137.10558809	    111.93616185	    -35.65400185	    -22.10371808	      3.04530099	    119.25398056	     97.51769098	      0.00000000	      0.00000000	      0.00000000	      0.00000000	      0.00000000	      0.00000000	      0.00000000	      0.00000000	      0.89973916	      1.10439602	     -0.44643498	      0.90382303	      1.10047708	     -0.18792298	      0.72465599	      1.14507721	     -0.36284903	      0.72711679	      1.14500554	     -0.27911894	      0.79141920	      0.93416487	     -0.14367424	      0.79615389	      0.81516646	     -0.16351406	      0.68552821	      0.74109236	     -0.19406840	      0.88629734	      0.89563839	     -0.50070824	      0.98677323	      0.79854093	     -0.48513743	      0.96125474	      0.67361769	     -0.45727063	      0.57284155	      0.45855865	     -0.27916344	      0.50310575	      0.43401483	     -0.21489466	      0.44588804	      0.35041270	     -0.28372255	      1.08139393	      0.46642172	     -0.39340207	      1.06679044	      0.37402157	     -0.44291054	      1.10766741	      0.26888758	     -0.37394346	      0.26590054	      0.35302810	     -0.30458098	      0.35205707	      0.13600647	     -0.31668172	      0.28475298	      0.17785930	     -0.23507042	      1.03418203	      0.10328091	     -0.35429263	      1.25796033	      0.16894702	     -0.33020211	      1.21221564	      0.10270610	     -0.40992027	      0.88977891	      1.57321491	     -0.49671736	      0.94146056	      1.58504188	     -0.17036454	      0.95929984	      1.52048205	     -0.30573142	      0.84181763	      1.60858079	     -0.31593408	      0.94034108	      1.49298617	     -0.08538830	      0.94962254	      1.40432743	     -0.08147450	      0.88700420	      1.39867006	     -0.03125517	      0.89329986	      1.26496085	      0.02444151	      0.83448513	      1.24607175	     -0.03706282	      0.82730347	      1.51852882	     -0.56588979	      0.80807799	      1.45043410	     -0.57199374	      0.71867307	      1.47803346	     -0.53706782	      0.62877580	      1.34145068	     -0.60506200	      0.60364719	      1.34205899	     -0.52430606	      0.97913230	      1.29383743	     -0.03770266	      1.04334287	      1.35419641	     -0.19134311	      1.08849455	      1.30476970	     -0.15802092	      0.71736840	      1.30419672	     -0.59595452	      0.87051858	      1.25929487	     -0.50782593	      0.84723331	      1.19639869	     -0.53471365
      1.50000000	     -4.77423419	      2.22136145	     -0.41723772	      0.90962766	      1.08405796	     -0.32160971	    -12.47169460	      1.57269380	     -0.74791894	    -39.52774075	     -7.02023930	     29.87052330	      5.55866668	     -0.36756575	    -16.24570165	      9.84378767	    -10.53438040	     -3.59076328	     11.30729557	     -7.93241643	    -28.17719184	      3.42406587	    136.51613780	    112.35051407	    -35.08694621	    -22.25445082	      3.02878531	    119.45847624	     97.57358412	      0.00000000	      0.00000000	      0.00000000	      0.00000000	      0.00000000	      0.00000000	      0.00000000	      0.00000000	      0.89933035	      1.10172960	     -0.44724556	      0.90502769	      1.09727678	     -0.18844958	      0.72434832	      1.14179249	     -0.36226938	      0.72769041	      1.14183190	     -0.27845619	      0.79515032	      0.92992024	     -0.14512160	      0.80112460	      0.81109103	     -0.16548480	      0.69201942	      0.73541787	     -0.19478722	      0.88271519	      0.89090262	     -0.50302468	      0.98347907	      0.79329314	     -0.48858234	      0.95914739	      0.67011501	     -0.45697626	      0.57652137	      0.45767299	     -0.28015720	      0.50556007	      0.43720592	     -0.21545279	      0.44840777	      0.35361386	     -0.28425796	      1.07911688	      0.46337233	     -0.39255162	      1.06387726	      0.37036415	     -0.44126468	      1.10453012	      0.26552151	     -0.37185197	      0.26257977	      0.36919204	     -0.30419715	      0.34005205	      0.14889653	     -0.31546765	      0.27458751	      0.19380654	     -0.23377937	      1.03048602	      0.10010792	     -0.34955924	      1.25498659	      0.16581079	     -0.33123762	      1.20734467	      0.09816877	     -0.40865927	      0.88993319	      1.56970999	     -0.49757503	      0.94139378	      1.58241035	     -0.17091980	      0.95896355	      1.51765361	     -0.30631884	      0.84157032	      1.60580457	     -0.31691306	      0.93928907	      1.49015876	     -0.08573589	      0.94750575	      1.40203331	     -0.08101193	      0.88403377	      1.39700851	     -0.03174793	      0.88838401	      1.26310176	      0.02414766	      0.82928038	      1.24522728	     -0.03741833	      0.82795661	      1.51429547	     -0.56668352	      0.80946732	      1.44609754	     -0.57307194	      0.71968519	      1.47260248	     -0.53866731	      0.63157630	      1.33544278	     -0.60751876	      0.60610189	      1.33561552	     -0.52698983	      0.97527299	      1.28917292	     -0.03794904	      1.04074231	      1.34736752	     -0.19223336	      1.08484063	      1.29752487	     -0.15812540	      0.72077134	      1.29950099	     -0.59794880	      0.87384212	      1.25685820	     -0.50889616	      0.85168554	      1.19354048	     -0.53595293
